<svg width="36" height="36" viewBox="0 0 36 36" fill="none" xmlns="http://www.w3.org/2000/svg">
<g id="3 User">
<g id="Iconly/Curved/3-User">
<g id="3-User">
<path id="Stroke-1" fill-rule="evenodd" clip-rule="evenodd" d="M17.9592 30.5521C13.1007 30.5521 8.9502 29.8171 8.9502 26.8741C8.9502 23.9311 13.0737 21.3691 17.9592 21.3691C22.8177 21.3691 26.9682 23.9071 26.9682 26.8486C26.9682 29.7901 22.8447 30.5521 17.9592 30.5521Z" stroke="#2699FB" stroke-width="2" stroke-linecap="round" stroke-linejoin="round"/>
<path id="Stroke-3" fill-rule="evenodd" clip-rule="evenodd" d="M17.9586 17.1735C21.1476 17.1735 23.7336 14.589 23.7336 11.4C23.7336 8.211 21.1476 5.625 17.9586 5.625C14.7696 5.625 12.1836 8.211 12.1836 11.4C12.1746 14.577 14.7396 17.163 17.9181 17.1735H17.9586Z" stroke="#2699FB" stroke-width="2" stroke-linecap="round" stroke-linejoin="round"/>
<path id="Stroke-5" d="M27.5439 15.5875C29.3994 15.091 30.7674 13.399 30.7674 11.3845C30.7674 9.28305 29.2779 7.52805 27.2949 7.12305" stroke="#2699FB" stroke-width="2" stroke-linecap="round" stroke-linejoin="round"/>
<path id="Stroke-7" d="M28.415 20.3164C31.046 20.3164 33.293 22.0999 33.293 23.6929C33.293 24.6304 32.5175 25.6519 31.3415 25.9279" stroke="#2699FB" stroke-width="2" stroke-linecap="round" stroke-linejoin="round"/>
<path id="Stroke-9" d="M8.37637 15.5875C6.51937 15.091 5.15137 13.399 5.15137 11.3845C5.15137 9.28305 6.64237 7.52805 8.62387 7.12305" stroke="#2699FB" stroke-width="2" stroke-linecap="round" stroke-linejoin="round"/>
<path id="Stroke-11" d="M7.503 20.3164C4.872 20.3164 2.625 22.0999 2.625 23.6929C2.625 24.6304 3.4005 25.6519 4.578 25.9279" stroke="#2699FB" stroke-width="2" stroke-linecap="round" stroke-linejoin="round"/>
</g>
</g>
</g>
</svg>
