<svg width="48" height="48" viewBox="0 0 48 48" fill="none" xmlns="http://www.w3.org/2000/svg">
<g id="Activity">
<g id="Iconly/Curved/Activity">
<g id="Activity_2">
<path id="Stroke-1" d="M13.9355 30.0073L19.9215 22.2293L26.7495 27.5893L32.6075 20.0293" stroke="#2699FB" stroke-width="2" stroke-linecap="round" stroke-linejoin="round"/>
<path id="Stroke-2" fill-rule="evenodd" clip-rule="evenodd" d="M39.4348 5C41.5588 5 43.2788 6.72 43.2788 8.844C43.2788 10.966 41.5588 12.688 39.4348 12.688C37.3108 12.688 35.5908 10.966 35.5908 8.844C35.5908 6.72 37.3108 5 39.4348 5Z" stroke="#2699FB" stroke-width="2" stroke-linecap="round" stroke-linejoin="round"/>
<path id="Stroke-4" d="M41.612 18.8383C41.878 20.6283 42 22.6442 42 24.9062C42 38.7823 37.376 43.4062 23.5 43.4062C9.626 43.4062 5 38.7823 5 24.9062C5 11.0323 9.626 6.40625 23.5 6.40625C25.72 6.40625 27.702 6.52425 29.466 6.78025" stroke="#2699FB" stroke-width="2" stroke-linecap="round" stroke-linejoin="round"/>
</g>
</g>
</g>
</svg>
