<svg width="36" height="36" viewBox="0 0 36 36" fill="none" xmlns="http://www.w3.org/2000/svg">
<g id="Activity">
<g id="Iconly/Curved/Activity">
<g id="Activity_2">
<path id="Stroke-1" d="M10.375 22.2804L14.8645 16.4469L19.9855 20.4669L24.379 14.7969" stroke="#2699FB" stroke-width="2" stroke-linecap="round" stroke-linejoin="round"/>
<path id="Stroke-2" fill-rule="evenodd" clip-rule="evenodd" d="M29.5002 3.52539C31.0932 3.52539 32.3832 4.81539 32.3832 6.40839C32.3832 7.99989 31.0932 9.29139 29.5002 9.29139C27.9072 9.29139 26.6172 7.99989 26.6172 6.40839C26.6172 4.81539 27.9072 3.52539 29.5002 3.52539Z" stroke="#2699FB" stroke-width="2" stroke-linecap="round" stroke-linejoin="round"/>
<path id="Stroke-4" d="M31.1328 13.9038C31.3323 15.2463 31.4238 16.7583 31.4238 18.4548C31.4238 28.8618 27.9558 32.3298 17.5488 32.3298C7.14333 32.3298 3.67383 28.8618 3.67383 18.4548C3.67383 8.04933 7.14333 4.57983 17.5488 4.57983C19.2138 4.57983 20.7003 4.66833 22.0233 4.86033" stroke="#2699FB" stroke-width="2" stroke-linecap="round" stroke-linejoin="round"/>
</g>
</g>
</g>
</svg>
