<svg width="36" height="36" viewBox="0 0 36 36" fill="none" xmlns="http://www.w3.org/2000/svg">
<g id="Edit Square">
<g id="Iconly/Curved/Edit-Square">
<g id="Edit-Square">
<path id="Stroke-1" d="M18 4.125C7.5945 4.125 4.125 7.5945 4.125 18C4.125 28.4055 7.5945 31.875 18 31.875C28.4055 31.875 31.875 28.4055 31.875 18" stroke="#2699FB" stroke-width="2" stroke-linecap="round" stroke-linejoin="round"/>
<path id="Stroke-3" fill-rule="evenodd" clip-rule="evenodd" d="M29.2921 6.45595C27.8026 5.13745 25.5271 5.27545 24.2086 6.76495C24.2086 6.76495 17.6551 14.1674 15.3826 16.7369C13.1071 19.3049 14.7751 22.8524 14.7751 22.8524C14.7751 22.8524 18.5311 24.0419 20.7721 21.5099C23.0146 18.9779 29.6011 11.5394 29.6011 11.5394C30.9196 10.0499 30.7801 7.77445 29.2921 6.45595Z" stroke="#2699FB" stroke-width="2" stroke-linecap="round" stroke-linejoin="round"/>
<path id="Stroke-5" d="M22.5137 8.70117L27.9062 13.4757" stroke="#2699FB" stroke-width="2" stroke-linecap="round" stroke-linejoin="round"/>
</g>
</g>
</g>
</svg>
