<svg width="64" height="64" viewBox="0 0 64 64" fill="none" xmlns="http://www.w3.org/2000/svg">
<g id="Frame">
<g clip-path="url(#clip0_1_683)">
<path id="Vector" opacity="0.1" d="M64 0H0V64H64V0Z" fill="#FB6238"/>
<path id="Vector_2" d="M47.2018 24.2393L46.4602 23.5483C45.7591 22.8956 45.5025 21.8934 45.8035 20.9822L46.1228 20.0183C46.5774 18.6464 45.753 17.1815 44.3447 16.8582L43.3567 16.6299C42.4231 16.4136 41.6998 15.6761 41.5058 14.7366L41.2997 13.7444C41.0067 12.33 39.56 11.4733 38.1799 11.8957L37.21 12.1927C36.2927 12.4735 35.2986 12.1947 34.6601 11.4794L33.9852 10.7217C33.0234 9.64271 31.3444 9.62456 30.3583 10.6813L29.6673 11.4228C29.0146 12.124 28.0124 12.3806 27.1012 12.0796L26.1373 11.7603C24.7653 11.3057 23.3005 12.13 22.9771 13.5384L22.7488 14.5264C22.5326 15.4599 21.7931 16.1833 20.8555 16.3773L19.8614 16.5854C18.447 16.8784 17.5903 18.3251 18.0126 19.7052L18.3097 20.675C18.5905 21.5923 18.3117 22.5865 17.5964 23.225L16.8386 23.8998C15.7597 24.8616 15.7415 26.5407 16.7982 27.5268L17.5398 28.2178C18.241 28.8705 18.4976 29.8727 18.1965 30.7839L17.8772 31.7477C17.4226 33.1197 18.247 34.5846 19.6554 34.9079L20.6434 35.1362C21.5769 35.3525 22.3003 36.092 22.4942 37.0295L22.7004 38.0217C22.9933 39.4361 24.44 40.2928 25.8201 39.8704L26.79 39.5734C27.7073 39.2926 28.7014 39.5714 29.3399 40.2867L30.0148 41.0444C30.9766 42.1234 32.6557 42.1415 33.6418 41.0848L34.3327 40.3433C34.9854 39.6421 35.9876 39.3855 36.8989 39.6865L37.8627 40.0058C39.2347 40.4604 40.6996 39.6361 41.0229 38.2277L41.2512 37.2397C41.4674 36.3062 42.207 35.5828 43.1445 35.3888L44.1386 35.1827C45.553 34.8897 46.4097 33.443 45.9874 32.063L45.6904 31.0931C45.4096 30.1758 45.6883 29.1816 46.4036 28.5431L47.1614 27.8683C48.2404 26.9045 48.2585 25.2234 47.2018 24.2393ZM31.801 35.9849C26.2222 35.9222 21.7486 31.3477 21.8113 25.7689C21.8739 20.1901 26.4485 15.7165 32.0273 15.7792C37.6061 15.8418 42.0796 20.4164 42.017 25.9952C41.9544 31.5739 37.3798 36.0476 31.801 35.9849Z" fill="#FB6238"/>
<path id="Vector_3" opacity="0.35" d="M31.9144 35.9831C37.494 35.9831 42.0172 31.4599 42.0172 25.8803C42.0172 20.3006 37.494 15.7773 31.9144 15.7773C26.3347 15.7773 21.8115 20.3006 21.8115 25.8803C21.8115 31.4599 26.3347 35.9831 31.9144 35.9831Z" fill="#FB6238"/>
<path id="Vector_4" opacity="0.35" d="M41.1182 32.0463C39.5179 35.5944 35.9414 38.0514 31.8013 38.0049C27.6612 37.9585 24.1393 35.4206 22.6198 31.8381L21.949 31.8301L21.7247 51.8721C21.7066 53.5654 23.6544 54.5292 24.99 53.4866L28.0491 51.0942C30.2818 49.3484 33.4279 49.3827 35.6223 51.1791L38.6268 53.6381C39.9382 54.711 41.9083 53.7916 41.9264 52.0963L42.1507 32.0543L41.1182 32.0463Z" fill="#FB6238"/>
</g>
</g>
<defs>
<clipPath id="clip0_1_683">
<rect width="64" height="64" rx="8" fill="white"/>
</clipPath>
</defs>
</svg>
