<svg width="64" height="64" viewBox="0 0 64 64" fill="none" xmlns="http://www.w3.org/2000/svg">
<g id="Frame">
<g clip-path="url(#clip0_1_678)">
<path id="Vector" d="M37.7831 30.5285L29.8237 25.2217C29.2801 24.8603 28.5804 24.8242 28.0088 25.133C27.4339 25.4417 27.0742 26.0412 27.0742 26.6933V37.307C27.0742 37.9607 27.4339 38.5586 28.0088 38.8674C28.2699 39.007 28.5574 39.076 28.8431 39.076C29.1864 39.076 29.528 38.9758 29.8237 38.7786L37.7831 33.4719C38.2759 33.1433 38.5715 32.5915 38.5715 32.0002C38.5715 31.4089 38.2759 30.857 37.7831 30.5285Z" fill="#FFB800"/>
<path id="Vector_2" opacity="0.35" d="M32.0018 48.4259C41.073 48.4259 48.4266 41.0722 48.4266 32.0011C48.4266 22.9299 41.073 15.5763 32.0018 15.5763C22.9307 15.5763 15.577 22.9299 15.577 32.0011C15.577 41.0722 22.9307 48.4259 32.0018 48.4259Z" fill="#FFB800"/>
<path id="Vector_3" opacity="0.1" d="M64 0H0V64H64V0Z" fill="#FFD600"/>
</g>
</g>
<defs>
<clipPath id="clip0_1_678">
<rect width="64" height="64" rx="8" fill="white"/>
</clipPath>
</defs>
</svg>
