<svg width="64" height="64" viewBox="0 0 64 64" fill="none" xmlns="http://www.w3.org/2000/svg">
<g id="Frame">
<g clip-path="url(#clip0_1_706)">
<path id="Vector" d="M64 0H0V64H64V0Z" fill="white"/>
<path id="Vector_2" opacity="0.35" d="M43.8654 41.3223H20.1349C17.3262 41.3223 15.0498 39.0459 15.0498 36.2372V22.6769C15.0498 19.8682 17.3262 17.5918 20.1349 17.5918H43.8654C46.6741 17.5918 48.9505 19.8682 48.9505 22.6769V36.2372C48.9505 39.0459 46.6741 41.3223 43.8654 41.3223Z" fill="#316AFF"/>
<path id="Vector_3" d="M48.1028 41.3223C47.8044 41.3223 16.1953 41.3223 15.8971 41.3223C14.4935 41.3223 13.3545 42.4614 13.3545 43.8649C13.3545 45.2683 14.4935 46.4074 15.8971 46.4074C16.1953 46.4074 47.8044 46.4074 48.1028 46.4074C49.5062 46.4074 50.6453 45.2683 50.6453 43.8649C50.6453 42.4614 49.5062 41.3223 48.1028 41.3223Z" fill="#316AFF"/>
<path id="Vector_4" opacity="0.1" d="M64 0H0V64H64V0Z" fill="#316AFF"/>
</g>
</g>
<defs>
<clipPath id="clip0_1_706">
<rect width="64" height="64" rx="8" fill="white"/>
</clipPath>
</defs>
</svg>
