<svg width="64" height="64" viewBox="0 0 64 64" fill="none" xmlns="http://www.w3.org/2000/svg">
<g id="Frame">
<g clip-path="url(#clip0_1_700)">
<path id="Vector" opacity="0.1" d="M64 0H0V64H64V0Z" fill="#FF6262"/>
<path id="Vector_2" opacity="0.35" d="M23.8463 28.3762C27.3486 28.3762 30.1877 25.5371 30.1877 22.0348C30.1877 18.5325 27.3486 15.6934 23.8463 15.6934C20.344 15.6934 17.5049 18.5325 17.5049 22.0348C17.5049 25.5371 20.344 28.3762 23.8463 28.3762Z" fill="#FF6262"/>
<path id="Vector_3" opacity="0.35" d="M40.153 28.3762C43.6552 28.3762 46.4944 25.5371 46.4944 22.0348C46.4944 18.5325 43.6552 15.6934 40.153 15.6934C36.6507 15.6934 33.8115 18.5325 33.8115 22.0348C33.8115 25.5371 36.6507 28.3762 40.153 28.3762Z" fill="#FF6262"/>
<path id="Vector_4" opacity="0.35" d="M29.2822 35.623H43.777C47.2737 35.623 50.1184 38.4676 50.1184 41.9645C50.1184 45.4613 47.2737 48.3059 43.777 48.3059H29.2822V35.623Z" fill="#FF6262"/>
<path id="Vector_5" d="M35.6239 41.9645C35.6239 45.4613 32.7793 48.3059 29.2825 48.3059H20.2233C18.4839 48.3059 16.8895 47.5993 15.748 46.4397C14.5884 45.2983 13.8818 43.7039 13.8818 41.9645C13.8818 38.4676 16.7264 35.623 20.2233 35.623H29.2825C31.0218 35.623 32.6162 36.3297 33.7577 37.4892C34.9172 38.6308 35.6239 40.2252 35.6239 41.9645Z" fill="#FF6262"/>
</g>
</g>
<defs>
<clipPath id="clip0_1_700">
<rect width="64" height="64" rx="8" fill="white"/>
</clipPath>
</defs>
</svg>
