<svg width="64" height="64" viewBox="0 0 64 64" fill="none" xmlns="http://www.w3.org/2000/svg">
<g id="Frame">
<g clip-path="url(#clip0_1_669)">
<path id="Vector" d="M64 0H0V64H64V0Z" fill="white"/>
<path id="Vector_2" opacity="0.35" d="M43.8643 47.2508H20.1395C17.3315 47.2508 15.0557 44.975 15.0557 42.1669V25.2207H48.9481V42.1669C48.9481 44.975 46.6723 47.2508 43.8643 47.2508Z" fill="#BC61C2"/>
<path id="Vector_3" d="M41.3212 28.6112C42.7251 28.6112 43.8631 27.4731 43.8631 26.0693C43.8631 24.6654 42.7251 23.5273 41.3212 23.5273C39.9173 23.5273 38.7793 24.6654 38.7793 26.0693C38.7793 27.4731 39.9173 28.6112 41.3212 28.6112Z" fill="#BC61C2"/>
<path id="Vector_4" d="M22.6797 28.6112C24.0835 28.6112 25.2216 27.4731 25.2216 26.0693C25.2216 24.6654 24.0835 23.5273 22.6797 23.5273C21.2758 23.5273 20.1377 24.6654 20.1377 26.0693C20.1377 27.4731 21.2758 28.6112 22.6797 28.6112Z" fill="#BC61C2"/>
<path id="Vector_5" d="M45.5589 18.4439C45.1844 18.4439 41.5647 18.4439 37.0858 18.4439C37.0858 16.5714 35.5691 15.0547 33.6966 15.0547C33.0763 15.0547 30.9275 15.0547 30.3073 15.0547C28.4347 15.0547 26.918 16.5714 26.918 18.4439C22.4391 18.4439 18.8194 18.4439 18.4449 18.4439C16.5723 18.4439 15.0557 19.9607 15.0557 21.8332C15.0557 23.7058 15.0557 26.9171 15.0557 26.9171H48.9481C48.9481 26.9171 48.9481 23.7058 48.9481 21.8332C48.9481 19.9607 47.4315 18.4439 45.5589 18.4439Z" fill="#BC61C2"/>
<path id="Vector_6" d="M37.0847 35.8272V34.9545C37.0847 34.258 36.5221 33.6953 35.8274 33.6953H28.1744C27.4796 33.6953 26.917 34.258 26.917 34.9528V35.8255C26.917 36.522 27.4796 37.0846 28.1744 37.0846H35.8256C36.5221 37.0846 37.0847 36.522 37.0847 35.8272Z" fill="#BC61C2"/>
<path id="Vector_7" opacity="0.1" d="M64 0H0V64H64V0Z" fill="#BE58C6"/>
</g>
</g>
<defs>
<clipPath id="clip0_1_669">
<rect width="64" height="64" rx="8" fill="white"/>
</clipPath>
</defs>
</svg>
