<svg width="64" height="64" viewBox="0 0 64 64" fill="none" xmlns="http://www.w3.org/2000/svg">
<g id="Frame">
<g clip-path="url(#clip0_1_657)">
<path id="Vector" d="M64 0H0V64H64V0Z" fill="white"/>
<path id="Vector_2" d="M43 24C44.1046 24 45 23.1045 45 22C45 20.8954 44.1046 20 43 20C41.8954 20 41 20.8954 41 22C41 23.1045 41.8954 24 43 24Z" fill="#A7CE4A"/>
<path id="Vector_3" d="M43 33C44.1046 33 45 32.1045 45 31C45 29.8954 44.1046 29 43 29C41.8954 29 41 29.8954 41 31C41 32.1045 41.8954 33 43 33Z" fill="#A7CE4A"/>
<path id="Vector_4" d="M38.5 42C39.3284 42 40 41.1045 40 40C40 38.8954 39.3284 38 38.5 38C37.6716 38 37 38.8954 37 40C37 41.1045 37.6716 42 38.5 42Z" fill="#A7CE4A"/>
<rect id="Rectangle 570" x="19" y="20" width="18" height="4" rx="2" fill="#A7CE4A"/>
<rect id="Rectangle 571" x="19" y="29" width="18" height="4" rx="2" fill="#A7CE4A"/>
<rect id="Rectangle 572" x="19" y="38" width="14" height="4" rx="2" fill="#A7CE4A"/>
<path id="Vector_5" opacity="0.35" d="M46.4 12H17.6C15.611 12 14 13.4489 14 15.238V47.762C14 49.551 15.611 51 17.6 51H46.4C48.389 51 50 49.551 50 47.762V15.238C50 13.4489 48.389 12 46.4 12Z" fill="#A7CE4A"/>
<path id="Vector_6" opacity="0.1" d="M64 0H0V64H64V0Z" fill="#A7CE4A"/>
</g>
</g>
<defs>
<clipPath id="clip0_1_657">
<rect width="64" height="64" rx="8" fill="white"/>
</clipPath>
</defs>
</svg>
