<svg width="32" height="32" viewBox="0 0 32 32" fill="none" xmlns="http://www.w3.org/2000/svg">
<g id="Frame">
<path id="Vector" d="M21.844 11.031H20.378C20.059 11.031 19.756 11.184 19.569 11.447L14.657 18.26L12.432 15.173C12.3397 15.0446 12.2182 14.94 12.0775 14.8677C11.9369 14.7954 11.7811 14.7574 11.623 14.757H10.157C9.954 14.757 9.835 14.988 9.954 15.154L13.848 20.554C13.94 20.6825 14.0614 20.787 14.202 20.859C14.343 20.931 14.498 20.969 14.656 20.969C14.814 20.969 14.97 20.931 15.11 20.859C15.2504 20.7867 15.3717 20.6822 15.464 20.554L22.045 11.429C22.072 11.3919 22.0883 11.348 22.092 11.3022C22.0957 11.2564 22.0867 11.2105 22.0661 11.1695C22.0454 11.1285 22.0138 11.094 21.9748 11.0697C21.9358 11.0455 21.8909 11.0324 21.845 11.032L21.844 11.031ZM16 2C8.269 2 2 8.269 2 16C2 23.731 8.269 30 16 30C23.731 30 30 23.731 30 16C30 8.269 23.731 2 16 2ZM16 27.625C12.9173 27.6237 9.96117 26.3985 7.78135 24.2187C5.60152 22.0388 4.37633 19.0827 4.375 16C4.37633 12.9173 5.60152 9.96117 7.78135 7.78135C9.96117 5.60152 12.9173 4.37633 16 4.375C19.0827 4.37633 22.0388 5.60152 24.2187 7.78135C26.3985 9.96117 27.6237 12.9173 27.625 16C27.6237 19.0827 26.3985 22.0388 24.2187 24.2187C22.0388 26.3985 19.0827 27.6237 16 27.625Z" fill="#2699FB"/>
</g>
</svg>
