<svg width="48" height="48" viewBox="0 0 48 48" fill="none" xmlns="http://www.w3.org/2000/svg">
<g id="Star">
<g id="Iconly/Curved/Star">
<g id="Star_2">
<path id="Stroke-1" fill-rule="evenodd" clip-rule="evenodd" d="M24 6C19.9277 6 19.5427 13.093 17.1182 15.5991C14.6938 18.1053 7.1564 15.2398 6.10917 19.6881C5.06415 24.1385 11.8447 25.6486 12.6807 29.4669C13.5211 33.2851 9.37845 38.6498 12.9183 41.3197C16.4582 43.9873 20.2687 37.9494 24 37.9494C27.7313 37.9494 31.5418 43.9873 35.0816 41.3197C38.6215 38.6498 34.481 33.2851 35.3192 29.4669C36.1575 25.6486 42.9358 24.1385 41.8908 19.6881C40.8458 15.2398 33.3062 18.1053 30.8839 15.5991C28.4595 13.093 28.0723 6 24 6Z" stroke="#FA9552" stroke-width="2.5" stroke-linecap="round" stroke-linejoin="round"/>
</g>
</g>
</g>
</svg>
