<svg width="48" height="48" viewBox="0 0 48 48" fill="none" xmlns="http://www.w3.org/2000/svg">
<g id="Ticket Star">
<g id="Iconly/Curved/Ticket-Star">
<g id="Ticket-Star">
<path id="Stroke-1" fill-rule="evenodd" clip-rule="evenodd" d="M42.58 26.1661V17.9373C42.58 8.40295 42.58 5 23.79 5C5 5 5 8.40295 5 17.9373V26.1661C5 35.7023 5 39.1053 23.79 39.1053C42.58 39.1053 42.58 35.7023 42.58 26.1661Z" stroke="#2699FB" stroke-width="2" stroke-linecap="round" stroke-linejoin="round"/>
<path id="Stroke-3" fill-rule="evenodd" clip-rule="evenodd" d="M23.7904 16.5195C22.4244 16.5195 22.2944 18.6985 21.4824 19.4696C20.6684 20.2389 18.1424 19.3597 17.7904 20.7258C17.4404 22.0938 19.7144 22.5581 19.9964 23.7309C20.2764 24.9037 18.8884 26.5522 20.0744 27.3745C21.2624 28.193 22.5404 26.3381 23.7904 26.3381C25.0404 26.3381 26.3184 28.193 27.5064 27.3745C28.6944 26.5522 27.3044 24.9037 27.5844 23.7309C27.8664 22.5581 30.1404 22.0938 29.7904 20.7258C29.4384 19.3597 26.9124 20.2389 26.0984 19.4696C25.2864 18.6985 25.1564 16.5195 23.7904 16.5195Z" stroke="#2699FB" stroke-width="2" stroke-linecap="round" stroke-linejoin="round"/>
</g>
</g>
</g>
</svg>
